<svg height="512" viewBox="0 0 64 64" width="512" xmlns="http://www.w3.org/2000/svg"><g id="Cafe-coffee-cup-hot-4" data-name="Cafe-coffee-cup-hot"><path d="m61 55v2a4 4 0 0 1 -4 4h-50a4 4 0 0 1 -4-4v-2z" fill="#e0e0e2"/><path d="m49 19v6.01l-34-.01v-6z" fill="#754c29"/><path d="m61 24v21a2.006 2.006 0 0 1 -2 2h-10v-5h7v-15l-7 .02v-5.02h10a2.006 2.006 0 0 1 2 2z" fill="#b39a7c"/><path d="m49 25.01v25.99a4 4 0 0 1 -4 4h-26a4 4 0 0 1 -4-4v-26z" fill="#a78966"/><path d="m50 48h9a3 3 0 0 0 3-3v-21a3 3 0 0 0 -3-3h-9v-2a1 1 0 0 0 -1-1h-34a1 1 0 0 0 -1 1v32a4.948 4.948 0 0 0 1.026 3h-12.026a1 1 0 0 0 -1 1v2a5.006 5.006 0 0 0 5 5h50a5.006 5.006 0 0 0 5-5v-2a1 1 0 0 0 -1-1h-12.026a4.948 4.948 0 0 0 1.026-3zm0-19.981 5-.019v13h-5zm9-5.019a1 1 0 0 1 1 1v21a1 1 0 0 1 -1 1h-9v-3h6a1 1 0 0 0 1-1v-15a1 1 0 0 0 -1-1l-6 .019v-3.019zm1 34a3 3 0 0 1 -3 3h-50a3 3 0 0 1 -3-3v-1h56zm-41-3a3 3 0 0 1 -3-3v-25h2v-2h-2v-4h32v4.013l-28-.013v2l28 .013v24.987a3 3 0 0 1 -3 3z"/><path d="m22 13h2a5.006 5.006 0 0 0 5-5h-2a3 3 0 0 1 -3 3h-2a5.006 5.006 0 0 0 -5 5h2a3 3 0 0 1 3-3z"/><path d="m41 15h2a3 3 0 0 1 3-3h2a5.006 5.006 0 0 0 5-5h-2a3 3 0 0 1 -3 3h-2a5.006 5.006 0 0 0 -5 5z"/><path d="m38 7h2a5.006 5.006 0 0 0 5-5h-2a3 3 0 0 1 -3 3h-2a5.006 5.006 0 0 0 -5 5h2a3 3 0 0 1 3-3z"/></g></svg>