<svg id="Layer_1" enable-background="new 0 0 128 128" height="512" viewBox="0 0 128 128" width="512" xmlns="http://www.w3.org/2000/svg"><path d="m80.4 33.5-2.5 23.3-5.4 51.1-1.1 10.6h-36.7l-1.1-10.6-6-56.4-1.9-18z" fill="#ebecee"/><path d="m77.9 56.8-5.4 51.1-1.1 10.6h-36.7l-1.1-10.6-6-56.5s9.7 6.8 28.4 2.3c8.9-2.1 16.2-.6 21.9 3.1z" fill="#ffa500"/><path d="m72.5 107.9-1.1 10.6h-36.7l-1.1-10.6z" fill="#ebecee"/><path d="m102.3 92.7c0 14.3-11.6 25.8-25.8 25.8-1 0-1.9-.1-2.9-.2-13.1-1.5-22.9-12.5-22.9-25.7h51.6z" fill="#4b9641"/><path d="m93.4 92.7c0 9.4-7.6 16.9-16.9 16.9-.9 0-1.8-.1-2.7-.2-8.2-1.3-14.3-8.4-14.3-16.7z" fill="#ffc900"/><path d="m89.6 103.3-10.7-10.6h-5l-10.7 10.6c.7.9 1.6 1.7 2.5 2.5l8.9-8.9v12.6c1.2.1 2.3.1 3.5 0v-12.6l8.9 8.9c1-.8 1.9-1.6 2.6-2.5z" fill="#ffa500"/><g fill="#612c00"><path d="m85.3 11.3h8.5c1 0 1.8-.8 1.8-1.8s-.8-1.8-1.8-1.8h-8.5c-1 0-1.8.8-1.8 1.8s.8 1.8 1.8 1.8z"/><path d="m78.9 11.3h.8c1 0 1.8-.8 1.8-1.8s-.8-1.8-1.8-1.8h-.8c-1 0-1.8.8-1.8 1.8s.8 1.8 1.8 1.8z"/><path d="m102.3 90.9h-51.7c-1 0-1.8.8-1.8 1.8 0 10 5.4 19.2 14.2 24.1h-26.7l-.7-7.1h11.1c1 0 1.8-.8 1.8-1.8s-.8-1.8-1.8-1.8h-11.5l-5.5-51.7c4.4 1.8 9.1 2.6 13.9 2.5 3.4 0 6.8-.4 10.2-1.1l-2.8 20c-.1 1 .5 1.8 1.5 2h.2c.9 0 1.6-.6 1.7-1.5l5.7-41h18.2l-2 18.8c-3.7-1.9-7.8-2.9-12-3-1 0-1.8.8-1.8 1.7s.8 1.8 1.7 1.8c4.1 0 8.1 1.2 11.7 3.2l-2.9 27.1c-.1 1 .6 1.8 1.5 2 1 .1 1.8-.6 2-1.5 0 0 0 0 0-.1l5.5-51.5c.1-1-.6-1.8-1.6-1.9-.1 0-.1 0-.2 0h-19.5l2.1-15c.5-3.2 3.2-5.5 6.4-5.5h3.3c1 0 1.8-.8 1.8-1.8s-.8-1.8-1.8-1.8h-3.3c-4.9 0-9.1 3.7-9.8 8.6l-2.2 15.4h-31.5c-1 0-1.7.8-1.7 1.8v.2l1.9 18v.1l7.1 66.9c.1.9.8 1.6 1.7 1.6h41.7c15.2 0 27.6-12.4 27.6-27.6 0-1.1-.8-1.9-1.7-1.9zm-45.6-55.6-2.4 17.1c-14.3 3.1-22.7-.6-25-1.9l-1.6-15.2zm10.3 69.2 7.7-7.7v10.9c-2.8-.3-5.5-1.4-7.7-3.2zm-5.6-10.1h10.8l-7.7 7.6c-1.7-2.1-2.8-4.8-3.1-7.6zm16.8 2.5 7.7 7.7c-2.2 1.8-4.9 2.9-7.7 3.2zm-1.8 19.9c-12.6 0-23.1-9.8-24-22.3h5.4c.4 4.3 2.3 8.2 5.2 11.3 0 0 .1.1.1.1s.1 0 .1.1c7.3 7.3 19.1 7.2 26.4-.1 1.6-1.6 2.9-3.5 3.8-5.6.4-.9 0-1.9-.9-2.3s-1.9 0-2.3.9c-.5 1.2-1.2 2.3-2 3.3l-7.7-7.6h19.8c-.8 12.4-11.3 22.1-23.9 22.2z"/></g></svg>